# xmcd
#
# Track frame offsets:
#	183
#	18883
#	32265
#	47493
#	64230
#	89745
#	110220
#	123065
#	136413
#	152870
#	171695
#	195290
#	214690
#	232833
#	247358
#	265550
#	283410
#	303490
#	327238
#
# Disc length: 4606 seconds
#
# Revision: 4
# Processed by: cddbd v1.5.2PL0 Copyright (c) Steve Scherf et al.
# Submitted via: audiograbber 1.83.01
#
DISCID=1311fc13
DTITLE=Thin Lizzy - Vagabonds Kings Warriors Angels [CD 2) - Kings
DYEAR=2001
DGENRE=Rock
TTITLE0=Cruising In The Lizzymobile
TTITLE1=Little Darling
TTITLE2=Sitamoia
TTITLE3=Philomena
TTITLE4=Still In Love With You
TTITLE5=Showdown
TTITLE6=It's Only Money
TTITLE7=Rosalie [single mix]
TTITLE8=Half Caste
TTITLE9=King's Vengeance
TTITLE10=Suicide
TTITLE11=Wild One
TTITLE12=Try A Little Harder
TTITLE13=Fighting My Way Back
TTITLE14=Jailbreak
TTITLE15=Romeo And The Lonely Girl
TTITLE16=The Boys Are Back In Town
TTITLE17=Cowboy Song
TTITLE18=Emerald
EXTD=
EXTT0=
EXTT1=
EXTT2=
EXTT3=
EXTT4=
EXTT5=
EXTT6=
EXTT7=
EXTT8=
EXTT9=
EXTT10=
EXTT11=
EXTT12=
EXTT13=
EXTT14=
EXTT15=
EXTT16=
EXTT17=
EXTT18=
PLAYORDER=
